<svg width="83" height="12" viewBox="0 0 83 12" fill="none" xmlns="http://www.w3.org/2000/svg">
<path d="M13.9448 9.4613L11.6681 11.8363C11.6189 11.8879 11.5593 11.9291 11.4929 11.9572C11.4266 11.9854 11.355 12 11.2827 12H0.490112C0.438637 12 0.388288 11.9854 0.345228 11.9579C0.302169 11.9305 0.26827 11.8914 0.247681 11.8455C0.227092 11.7996 0.220706 11.7489 0.229307 11.6995C0.237907 11.6502 0.261119 11.6043 0.296102 11.5675L2.57025 9.19255C2.6195 9.14096 2.67913 9.0998 2.74545 9.07162C2.81176 9.04346 2.88334 9.02887 2.9557 9.0288H13.7483C13.8002 9.02776 13.8513 9.04169 13.8951 9.06884C13.9389 9.09599 13.9736 9.13514 13.9946 9.18136C14.0156 9.2276 14.0221 9.27885 14.0132 9.32866C14.0043 9.37847 13.9806 9.42462 13.9448 9.4613ZM11.6681 4.67755C11.6187 4.6262 11.559 4.5852 11.4927 4.55704C11.4265 4.52889 11.355 4.51417 11.2827 4.51381H0.490112C0.438637 4.51384 0.388288 4.52846 0.345228 4.55591C0.302169 4.58335 0.26827 4.62241 0.247681 4.66831C0.227092 4.71421 0.220706 4.76495 0.229307 4.81432C0.237907 4.8637 0.261119 4.90957 0.296102 4.94631L2.57025 7.32256C2.61968 7.37391 2.67936 7.41491 2.74563 7.44307C2.8119 7.47122 2.88339 7.48594 2.9557 7.4863H13.7483C13.7997 7.48604 13.8498 7.47122 13.8927 7.4437C13.9356 7.41616 13.9693 7.37709 13.9897 7.33124C14.0101 7.28539 14.0164 7.23474 14.0077 7.18547C13.9991 7.13621 13.9759 7.09046 13.941 7.05381L11.6681 4.67755ZM0.490112 2.9713H11.2827C11.355 2.97124 11.4266 2.95665 11.4929 2.92847C11.5593 2.90031 11.6189 2.85914 11.6681 2.80755L13.9448 0.432555C13.9806 0.39587 14.0043 0.349719 14.0132 0.299907C14.0221 0.250096 14.0156 0.19885 13.9946 0.152617C13.9736 0.106385 13.9389 0.067232 13.8951 0.0400854C13.8513 0.0129387 13.8002 -0.000989115 13.7483 5.46503e-05H2.9557C2.88334 0.000128755 2.81176 0.0147069 2.74545 0.0428802C2.67913 0.0710533 2.6195 0.112217 2.57025 0.163805L0.296102 2.5388C0.261119 2.57554 0.237907 2.62141 0.229307 2.67079C0.220706 2.72016 0.227092 2.7709 0.247681 2.8168C0.26827 2.8627 0.302169 2.90176 0.345228 2.9292C0.388288 2.95665 0.438637 2.97127 0.490112 2.9713Z" fill="url(#paint0_linear_914_276)"/>
<path d="M27.1026 5.07503H21.3286V3.22503H28.6033V1.37503H21.3093C21.0601 1.37371 20.8131 1.42016 20.5824 1.51173C20.3516 1.6033 20.1416 1.73819 19.9645 1.9087C19.7873 2.07921 19.6464 2.28201 19.5498 2.5055C19.4531 2.729 19.4027 2.96883 19.4014 3.21128V5.08628C19.4024 5.32894 19.4525 5.56904 19.549 5.79281C19.6455 6.0166 19.7863 6.21969 19.9635 6.39046C20.1408 6.56125 20.3509 6.69636 20.5817 6.78809C20.8126 6.87981 21.06 6.92634 21.3093 6.92503H27.0911V8.77503H19.5388V10.625H27.1026C27.3519 10.6264 27.5988 10.5799 27.8296 10.4883C28.0603 10.3968 28.2703 10.2619 28.4475 10.0914C28.6246 9.92084 28.7656 9.71805 28.8622 9.49455C28.9588 9.27105 29.0093 9.03123 29.0106 8.78878V6.91378C29.0096 6.67111 28.9595 6.43103 28.863 6.20724C28.7665 5.98345 28.6257 5.78036 28.4485 5.60959C28.2712 5.43881 28.0611 5.3037 27.8302 5.21198C27.5993 5.12025 27.352 5.07371 27.1026 5.07503Z" fill="white"/>
<path d="M38.2881 1.37506H32.4922C32.2426 1.37309 31.995 1.41905 31.7636 1.51032C31.5323 1.6016 31.3217 1.73637 31.144 1.90696C30.9662 2.07754 30.8249 2.28055 30.728 2.50437C30.631 2.7282 30.5804 2.96844 30.5791 3.21131V8.78881C30.5804 9.03169 30.631 9.27193 30.728 9.49575C30.8249 9.71958 30.9662 9.92259 31.144 10.0932C31.3217 10.2638 31.5323 10.3985 31.7636 10.4898C31.995 10.5811 32.2426 10.627 32.4922 10.6251H38.2881C38.5373 10.6264 38.7843 10.5799 39.015 10.4884C39.2458 10.3968 39.4559 10.2619 39.6329 10.0914C39.8101 9.92088 39.951 9.71808 40.0477 9.49459C40.1443 9.27109 40.1948 9.03126 40.196 8.78881V3.21131C40.1948 2.96886 40.1443 2.72904 40.0477 2.50554C39.951 2.28205 39.8101 2.07925 39.6329 1.90874C39.4559 1.73822 39.2458 1.60334 39.015 1.51176C38.7843 1.4202 38.5373 1.37375 38.2881 1.37506ZM38.2739 8.77506H32.5063V3.22506H38.2714L38.2739 8.77506Z" fill="white"/>
<path d="M58.5886 1.37514H52.9353C52.6861 1.37382 52.4391 1.42027 52.2084 1.51184C51.9776 1.60341 51.7675 1.7383 51.5905 1.90881C51.4133 2.07932 51.2724 2.28212 51.1757 2.50561C51.0791 2.72911 51.0286 2.96894 51.0273 3.21139V10.6251H52.9546V7.58639H58.5821V10.6251H60.5094V3.21139C60.5081 2.96787 60.4572 2.72702 60.3598 2.5027C60.2623 2.27839 60.1203 2.07504 59.9417 1.90435C59.7633 1.73367 59.5518 1.59905 59.3195 1.50822C59.0872 1.4174 58.8388 1.37217 58.5886 1.37514ZM58.5744 5.73639H52.9469V3.22514H58.5744V5.73639Z" fill="white"/>
<path d="M81.0934 1.37503H75.4402C75.1909 1.37371 74.944 1.42016 74.7132 1.51173C74.4825 1.6033 74.2725 1.73819 74.0954 1.9087C73.9182 2.07921 73.7772 2.28201 73.6806 2.5055C73.584 2.729 73.5335 2.96883 73.5322 3.21128V10.625H75.4595V7.58628H81.0742V10.625H83.0014V3.21128C83.0001 2.96883 82.9496 2.729 82.853 2.5055C82.7564 2.28201 82.6154 2.07921 82.4383 1.9087C82.2611 1.73819 82.0512 1.6033 81.8204 1.51173C81.5896 1.42016 81.3427 1.37371 81.0934 1.37503ZM81.0742 5.73628H75.4466V3.22503H81.0742V5.73628Z" fill="white"/>
<path d="M69.8948 8.77502H69.1239L66.368 2.15002C66.2735 1.92145 66.111 1.72557 65.9013 1.58749C65.6916 1.4494 65.4443 1.37542 65.1911 1.37502H63.481C63.3147 1.37419 63.15 1.40523 62.9962 1.46634C62.8423 1.52747 62.7024 1.61747 62.5842 1.73122C62.4661 1.84498 62.3722 1.98024 62.3078 2.12932C62.2434 2.27838 62.2099 2.43833 62.209 2.60002V10.625H64.1362V3.22502H64.9071L67.6618 9.85002C67.7578 10.0781 67.9216 10.2732 68.1322 10.4104C68.3426 10.5475 68.5905 10.6205 68.8438 10.62H70.554C70.7202 10.6208 70.8849 10.5898 71.0387 10.5287C71.1926 10.4676 71.3326 10.3776 71.4508 10.2638C71.5688 10.1501 71.6628 10.0148 71.7271 9.86573C71.7915 9.71665 71.825 9.55672 71.8259 9.39502V1.37502H69.8948V8.77502Z" fill="white"/>
<path d="M43.8257 1.375H41.8984V8.78875C41.8997 9.03174 41.9505 9.27208 42.0475 9.49598C42.1445 9.71989 42.2859 9.92295 42.4638 10.0936C42.6416 10.2642 42.8524 10.3989 43.0838 10.4901C43.3153 10.5813 43.5631 10.6271 43.8128 10.625H49.5946V8.775H43.8257V1.375Z" fill="white"/>
<defs>
<linearGradient id="paint0_linear_914_276" x1="1.38949" y1="12.2863" x2="12.3594" y2="-0.425559" gradientUnits="userSpaceOnUse">
<stop offset="0.08" stop-color="#9945FF"/>
<stop offset="0.3" stop-color="#8752F3"/>
<stop offset="0.5" stop-color="#5497D5"/>
<stop offset="0.6" stop-color="#43B4CA"/>
<stop offset="0.72" stop-color="#28E0B9"/>
<stop offset="0.97" stop-color="#19FB9B"/>
</linearGradient>
</defs>
</svg>